<mxfile host="app.diagrams.net" modified="2023-09-19T20:02:08.443Z" agent="Mozilla/5.0 (Macintosh; Intel Mac OS X 10.15; rv:109.0) Gecko/20100101 Firefox/117.0" version="21.7.5" etag="gGbCKemP2q3SY8xuuExy" type="github">
  <diagram name="Page-1" id="FpAU8RdEXLFEbIFH6dMK">
    <mxGraphModel>
      <root>
        <mxCell id="0" />
        <mxCell id="1" parent="0" />
      </root>
    </mxGraphModel>
  </diagram>
</mxfile>
